0
SECTION
2
ENTITIES
0
3DFACE
8
0
10
90.0
20
60.0
30
-935.30743
11
40.0
21
110.0
31
-935.30743
12
-310.0
22
60.0
32
-935.30743
13
-309.9999
23
60.0001
33
-935.3073
0
3DFACE
8
0
10
40.0
20
110.0
30
-935.30743
11
-260.0
21
110.0
31
-935.30743
12
-310.0
22
60.0
32
-935.30743
13
-309.9999
23
60.0001
33
-935.3073
0
3DFACE
8
0
10
-110.0
20
-190.0
30
-935.30743
11
-60.0
21
-140.0
31
-935.30743
12
-160.0
22
-140.0
32
-935.30743
13
-159.9999
23
-139.9999
33
-935.3073
0
LINE
8
0
10
-960.0
20
-540.0
30
-935.30743
11
-960.0
21
540.0
31
-935.30743
0
LINE
8
0
10
-910.0
20
-540.0
30
-935.30743
11
-910.0
21
540.0
31
-935.30743
0
LINE
8
0
10
-860.0
20
-540.0
30
-935.30743
11
-860.0
21
540.0
31
-935.30743
0
LINE
8
0
10
-810.0
20
-540.0
30
-935.30743
11
-810.0
21
540.0
31
-935.30743
0
LINE
8
0
10
-760.0
20
-540.0
30
-935.30743
11
-760.0
21
540.0
31
-935.30743
0
LINE
8
0
10
-710.0
20
-540.0
30
-935.30743
11
-710.0
21
540.0
31
-935.30743
0
LINE
8
0
10
-660.0
20
-540.0
30
-935.30743
11
-660.0
21
540.0
31
-935.30743
0
LINE
8
0
10
-610.0
20
-540.0
30
-935.30743
11
-610.0
21
540.0
31
-935.30743
0
LINE
8
0
10
-560.0
20
-540.0
30
-935.30743
11
-560.0
21
540.0
31
-935.30743
0
LINE
8
0
10
-510.0
20
-540.0
30
-935.30743
11
-510.0
21
540.0
31
-935.30743
0
LINE
8
0
10
-460.0
20
-540.0
30
-935.30743
11
-460.0
21
540.0
31
-935.30743
0
LINE
8
0
10
-410.0
20
-540.0
30
-935.30743
11
-410.0
21
540.0
31
-935.30743
0
LINE
8
0
10
-360.0
20
-540.0
30
-935.30743
11
-360.0
21
540.0
31
-935.30743
0
LINE
8
0
10
-310.0
20
-540.0
30
-935.30743
11
-310.0
21
540.0
31
-935.30743
0
LINE
8
0
10
-260.0
20
-540.0
30
-935.30743
11
-260.0
21
540.0
31
-935.30743
0
LINE
8
0
10
-210.0
20
-540.0
30
-935.30743
11
-210.0
21
540.0
31
-935.30743
0
LINE
8
0
10
-160.0
20
-540.0
30
-935.30743
11
-160.0
21
540.0
31
-935.30743
0
LINE
8
0
10
-110.0
20
-540.0
30
-935.30743
11
-110.0
21
540.0
31
-935.30743
0
LINE
8
0
10
-60.0
20
-540.0
30
-935.30743
11
-60.0
21
540.0
31
-935.30743
0
LINE
8
0
10
-10.0
20
-540.0
30
-935.30743
11
-10.0
21
540.0
31
-935.30743
0
LINE
8
0
10
40.0
20
-540.0
30
-935.30743
11
40.0
21
540.0
31
-935.30743
0
LINE
8
0
10
90.0
20
-540.0
30
-935.30743
11
90.0
21
540.0
31
-935.30743
0
LINE
8
0
10
140.0
20
-540.0
30
-935.30743
11
140.0
21
540.0
31
-935.30743
0
LINE
8
0
10
190.0
20
-540.0
30
-935.30743
11
190.0
21
540.0
31
-935.30743
0
LINE
8
0
10
240.0
20
-540.0
30
-935.30743
11
240.0
21
540.0
31
-935.30743
0
LINE
8
0
10
290.0
20
-540.0
30
-935.30743
11
290.0
21
540.0
31
-935.30743
0
LINE
8
0
10
340.0
20
-540.0
30
-935.30743
11
340.0
21
540.0
31
-935.30743
0
LINE
8
0
10
390.0
20
-540.0
30
-935.30743
11
390.0
21
540.0
31
-935.30743
0
LINE
8
0
10
440.0
20
-540.0
30
-935.30743
11
440.0
21
540.0
31
-935.30743
0
LINE
8
0
10
490.0
20
-540.0
30
-935.30743
11
490.0
21
540.0
31
-935.30743
0
LINE
8
0
10
540.0
20
-540.0
30
-935.30743
11
540.0
21
540.0
31
-935.30743
0
LINE
8
0
10
590.0
20
-540.0
30
-935.30743
11
590.0
21
540.0
31
-935.30743
0
LINE
8
0
10
640.0
20
-540.0
30
-935.30743
11
640.0
21
540.0
31
-935.30743
0
LINE
8
0
10
690.0
20
-540.0
30
-935.30743
11
690.0
21
540.0
31
-935.30743
0
LINE
8
0
10
-960.0
20
-540.0
30
-935.30743
11
710.0
21
-540.0
31
-935.30743
0
LINE
8
0
10
-960.0
20
-490.0
30
-935.30743
11
710.0
21
-490.0
31
-935.30743
0
LINE
8
0
10
-960.0
20
-440.0
30
-935.30743
11
710.0
21
-440.0
31
-935.30743
0
LINE
8
0
10
-960.0
20
-390.0
30
-935.30743
11
710.0
21
-390.0
31
-935.30743
0
LINE
8
0
10
-960.0
20
-340.0
30
-935.30743
11
710.0
21
-340.0
31
-935.30743
0
LINE
8
0
10
-960.0
20
-290.0
30
-935.30743
11
710.0
21
-290.0
31
-935.30743
0
LINE
8
0
10
-960.0
20
-240.0
30
-935.30743
11
710.0
21
-240.0
31
-935.30743
0
LINE
8
0
10
-960.0
20
-190.0
30
-935.30743
11
710.0
21
-190.0
31
-935.30743
0
LINE
8
0
10
-960.0
20
-140.0
30
-935.30743
11
710.0
21
-140.0
31
-935.30743
0
LINE
8
0
10
-960.0
20
-90.0
30
-935.30743
11
710.0
21
-90.0
31
-935.30743
0
LINE
8
0
10
-960.0
20
-40.0
30
-935.30743
11
710.0
21
-40.0
31
-935.30743
0
LINE
8
0
10
-960.0
20
10.0
30
-935.30743
11
710.0
21
10.0
31
-935.30743
0
LINE
8
0
10
-960.0
20
60.0
30
-935.30743
11
710.0
21
60.0
31
-935.30743
0
LINE
8
0
10
-960.0
20
110.0
30
-935.30743
11
710.0
21
110.0
31
-935.30743
0
LINE
8
0
10
-960.0
20
160.0
30
-935.30743
11
710.0
21
160.0
31
-935.30743
0
LINE
8
0
10
-960.0
20
210.0
30
-935.30743
11
710.0
21
210.0
31
-935.30743
0
LINE
8
0
10
-960.0
20
260.0
30
-935.30743
11
710.0
21
260.0
31
-935.30743
0
LINE
8
0
10
-960.0
20
310.0
30
-935.30743
11
710.0
21
310.0
31
-935.30743
0
LINE
8
0
10
-960.0
20
360.0
30
-935.30743
11
710.0
21
360.0
31
-935.30743
0
LINE
8
0
10
-960.0
20
410.0
30
-935.30743
11
710.0
21
410.0
31
-935.30743
0
LINE
8
0
10
-960.0
20
460.0
30
-935.30743
11
710.0
21
460.0
31
-935.30743
0
LINE
8
0
10
-960.0
20
510.0
30
-935.30743
11
710.0
21
510.0
31
-935.30743
0
LINE
8
0
10
90.0
20
60.0
30
-935.30743
11
40.0
21
110.0
31
-935.30743
0
LINE
8
0
10
40.0
20
110.0
30
-935.30743
11
-310.0
21
60.0
31
-935.30743
0
LINE
8
0
10
-310.0
20
60.0
30
-935.30743
11
90.0
21
60.0
31
-935.30743
0
LINE
8
0
10
40.0
20
110.0
30
-935.30743
11
-260.0
21
110.0
31
-935.30743
0
LINE
8
0
10
-260.0
20
110.0
30
-935.30743
11
-310.0
21
60.0
31
-935.30743
0
LINE
8
0
10
-310.0
20
60.0
30
-935.30743
11
40.0
21
110.0
31
-935.30743
0
LINE
8
0
10
-110.0
20
-190.0
30
-935.30743
11
-60.0
21
-140.0
31
-935.30743
0
LINE
8
0
10
-60.0
20
-140.0
30
-935.30743
11
-160.0
21
-140.0
31
-935.30743
0
LINE
8
0
10
-160.0
20
-140.0
30
-935.30743
11
-110.0
21
-190.0
31
-935.30743
0
ENDSEC
0
EOF
